<svg xmlns="http://www.w3.org/2000/svg" width="20px" height="18px" viewBox="0 0 20 18">
    <path fill="#BF4744" d="M8,14.75c-3.17,0-5.75-2.579-5.75-5.75S4.83,3.25,8,3.25c3.171,0,5.751,2.58,5.751,5.75S11.171,14.75,8,14.75z"/>
    <path fill="#BF4744" d="M8,3.5c3.033,0,5.501,2.467,5.501,5.5S11.033,14.5,8,14.5c-3.033,0-5.5-2.467-5.5-5.5S4.967,3.5,8,3.5M8,3C4.687,3,2,5.686,2,9c0,3.313,2.687,6,6,6s6.001-2.688,6.001-6C14.001,5.686,11.313,3,8,3L8,3z"/>
    <line fill="none" stroke="#4C0202" stroke-linecap="round" stroke-miterlimit="10" x1="10.5" y1="6.499" x2="5.5" y2="11.5"/>
    <line fill="none" stroke="#4C0202" stroke-linecap="round" stroke-miterlimit="10" x1="5.5" y1="6.498" x2="10.5" y2="11.498"/>
</svg>
