<svg xmlns="http://www.w3.org/2000/svg" width="20px" height="18px" viewBox="0 0 20 18">
    <path fill="#279637" d="M8,14.75c-3.17,0-5.75-2.579-5.75-5.75S4.83,3.25,8,3.25c3.171,0,5.751,2.58,5.751,5.75S11.171,14.75,8,14.75z"/>
    <path fill="#279637" d="M8,3.5c3.033,0,5.501,2.467,5.501,5.5S11.033,14.5,8,14.5c-3.033,0-5.5-2.467-5.5-5.5S4.967,3.5,8,3.5M8,3C4.687,3,2,5.686,2,9c0,3.313,2.687,6,6,6s6.001-2.688,6.001-6C14.001,5.686,11.313,3,8,3L8,3z"/>
    <path fill="#023002" d="M4.845,7.428v4.013c0,0-0.075,0.793,0.787,0.793s4.018,0,4.018,0L4.845,7.428z"/>
    <path fill="#023002" d="M11.17,10.585V6.574c0,0,0.074-0.794-0.787-0.794c-0.863,0-4.018,0-4.018,0L11.17,10.585z"/>
</svg>
